<svg id="Layer_1" data-name="Layer 1" xmlns="http://www.w3.org/2000/svg" viewBox="0 0 512 512"><defs><style>.cls-1{fill:#a076ab;}.cls-2{fill:#dbb595;}.cls-3{fill:#efe4dc;}.cls-4{fill:#e8c7af;}.cls-5{fill:#f7f3f0;}.cls-6{fill:#cea98d;}.cls-7{fill:#fff;}.cls-8{fill:#f4e028;}.cls-9{fill:#e2cb23;}</style></defs><title>manicure lotus</title><path class="cls-1" d="M256,7.92C119,7.92,7.92,119,7.92,256S119,504.08,256,504.08,504.08,393,504.08,256,393,7.92,256,7.92Z"/><path class="cls-2" d="M337.21,241.18c-7.67-3.29-16.84,1-20.5,9.55L271.44,358.41c-3.32,7.76-.39,16.48,6.56,19.46s15.27-.91,18.6-8.68l48.93-105.64C349.2,255,344.86,244.46,337.21,241.18Z"/><path class="cls-2" d="M369.87,254.49c-8-3.29-18.07-.06-21.61,8.56L297.64,392.48c-3.21,7.81.07,16.57,7.34,19.56s15.75-.94,19-8.75l55.38-126.82C382.85,267.85,377.88,257.78,369.87,254.49Z"/><path class="cls-2" d="M402,268.34c-7.73-3.07-17.76.93-21.18,9.6L339.59,385c-3.43,8.65.07,18.16,7.81,21.22s16.79-1.46,20.23-10.11L411.79,290.2C415.22,281.54,409.77,271.41,402,268.34Z"/><path class="cls-2" d="M435,278.13c-7.32-2.78-17.57,1.29-20.87,10l-20.48,62.65c-2.87,7.55,0,15.63,6.31,18s13.83-1.76,16.7-9.31l21-61.09C441,289.7,442.33,280.91,435,278.13Z"/><path class="cls-2" d="M359.19,156.33S329.91,175,315,183.78c-7.59,4.52-17,21.61-28.61,36.85-11.14,14.65-25.18,25.14-23.65,30.92,4.19,15.86,26.67,5,29.23,3.52,21.73-12.43,41.89-39.14,41.89-39.14l36.73-10.47Z"/><path class="cls-3" d="M261.81,254.15c15.53-3.57,17.23-24.76,17.23-24.76C255.37,249.73,261.81,254.15,261.81,254.15Z"/><path class="cls-4" d="M407.05,349.1c-4.68-1.59-9.05-1.18-11,4.69-.09.27-.48,2-.56,2.33-1.62,5.86,1.07,9.95,5.54,11.46s8.76.23,11.17-5.27c.19-.43.67-2.35.81-2.78C415,353.66,411.73,350.68,407.05,349.1Z"/><path class="cls-5" d="M406.78,349.77c-4.48-1.59-8.69-1.27-10.68,4.34-.09.26-1.18,4.25-1.27,4.52-1.64,5.61-1.49,12.16,4.07,14.14s9.5-2.7,11.9-7.94c.19-.41,1.36-4.55,1.5-5C414.3,354.28,411.25,351.37,406.78,349.77Z"/><path class="cls-3" d="M407.06,349.91c-4.48-1.59-8.68-1.27-10.68,4.35-.09.26-.66,1.83-.74,2.1-1.65,5.61.88,9.58,5.16,11.1s8.41.35,10.81-4.9c.19-.41.83-2.12,1-2.53C414.59,354.42,411.54,351.5,407.06,349.91Z"/><path class="cls-4" d="M356.76,382.44c-5.64-2.1-11-1.77-13.61,5.3-.12.33-.66,2.47-.77,2.81-2.19,7.07.94,12.15,6.32,14.15,5.23,2,10.65.6,13.79-6,.25-.51.9-2.84,1.09-3.35C366.22,388.29,362.4,384.54,356.76,382.44Z"/><path class="cls-5" d="M356.4,383.25c-5.39-2.1-10.52-1.86-13.16,4.9-.12.31-1.6,5.14-1.71,5.46-2.21,6.77-2.26,14.75,4.44,17.37s11.66-2.94,14.78-9.23c.24-.49,1.83-5.49,2-6C365.4,389,361.79,385.35,356.4,383.25Z"/><path class="cls-3" d="M356.74,383.43c-5.39-2.1-10.52-1.86-13.16,4.9-.12.31-.87,2.21-1,2.53-2.21,6.77.73,11.69,5.87,13.7s10.23.73,13.34-5.57c.24-.49,1.09-2.56,1.29-3C365.75,389.19,362.14,385.53,356.74,383.43Z"/><path class="cls-4" d="M314.91,388.33c-5.49-2.47-10.84-2.5-13.94,4.39-.14.31-.83,2.42-1,2.75-2.66,6.91.13,12.19,5.37,14.54s10.59,1.3,14.16-5.07c.28-.49,1.09-2.77,1.31-3.27C323.95,394.79,320.39,390.81,314.91,388.33Z"/><path class="cls-5" d="M314.49,389.11c-5.24-2.46-10.38-2.56-13.46,4-.14.3-1.94,5-2.07,5.34-2.65,6.61-3.23,14.57,3.27,17.62s11.83-2.15,15.36-8.23c.28-.47,2.19-5.35,2.41-5.83C323.09,395.46,319.73,391.57,314.49,389.11Z"/><path class="cls-3" d="M314.82,389.32c-5.24-2.46-10.38-2.56-13.46,4-.14.3-1,2.14-1.14,2.46-2.65,6.61-.05,11.71,4.95,14.06s10.16,1.41,13.68-4.67c.28-.47,1.26-2.48,1.49-3C323.42,395.67,320.06,391.78,314.82,389.32Z"/><path class="cls-4" d="M288,355c-5.49-2.47-10.83-2.5-13.93,4.39-.14.32-.83,2.42-1,2.75-2.66,6.91.13,12.18,5.37,14.54s10.59,1.3,14.16-5.07c.28-.49,1.08-2.77,1.31-3.27C297.05,361.44,293.5,357.45,288,355Z"/><path class="cls-5" d="M287.59,355.76c-5.24-2.46-10.38-2.56-13.46,4-.14.3-1.94,5-2.06,5.34-2.65,6.61-3.24,14.57,3.27,17.62s11.83-2.15,15.36-8.23c.27-.47,2.19-5.35,2.41-5.83C296.2,362.11,292.83,358.22,287.59,355.76Z"/><path class="cls-3" d="M287.93,356c-5.24-2.46-10.38-2.56-13.46,4-.14.3-1,2.14-1.14,2.46-2.66,6.61-.05,11.71,4.95,14.06s10.16,1.41,13.69-4.67c.27-.47,1.26-2.48,1.48-3C296.52,362.31,293.17,358.42,287.93,356Z"/><path class="cls-6" d="M342.67,196.5s-7.52,11.25-11.37,18.26S319.42,244,319.42,244s8.92-19.74,13.92-28.12,11.09-17.32,11.09-17.32Z"/><path class="cls-2" d="M408.28,60.16l-20.15,55c-6.07,7.21-36.51,46.29-36.51,46.29l-38.53,98.76L368,284l45.48,10.19,24.79,3s21.81-45,30.63-73.79c8.63-28.21,9.65-44.47,12.34-71.46A249,249,0,0,0,408.28,60.16Z"/><path class="cls-2" d="M160.38,161.42s-30.44-39.08-36.51-46.29l-20.15-55a249,249,0,0,0-73,91.77c2.69,27,3.7,43.25,12.34,71.46,8.83,28.83,30.63,73.79,30.63,73.79l24.79-3L144,284l54.91-23.82Z"/><path class="cls-2" d="M240.56,358.41,195.29,250.73c-3.67-8.56-12.84-12.84-20.5-9.55s-12,13.82-8.31,22.37L215.4,369.19c3.33,7.77,11.66,11.65,18.6,8.68S243.88,366.17,240.56,358.41Z"/><path class="cls-2" d="M214.36,392.48,163.74,263c-3.54-8.62-13.6-11.85-21.61-8.56s-13,13.36-9.45,22l55.38,126.82c3.21,7.81,11.7,11.73,19,8.75S217.57,400.28,214.36,392.48Z"/><path class="cls-2" d="M172.41,385,131.15,277.94c-3.42-8.67-13.44-12.67-21.18-9.6s-13.19,13.2-9.76,21.86l44.16,105.92c3.43,8.65,12.48,13.19,20.23,10.11S175.84,393.66,172.41,385Z"/><path class="cls-2" d="M118.34,350.76,97.86,288.11c-3.3-8.69-13.55-12.76-20.87-10s-6,11.58-2.64,20.28l21,61.09c2.87,7.55,10.35,11.72,16.7,9.31S121.21,358.31,118.34,350.76Z"/><path class="cls-2" d="M225.6,220.63c-11.61-15.24-21-32.33-28.61-36.85-14.9-8.8-44.19-27.44-44.19-27.44L141.4,205.47l36.73,10.47s20.16,26.7,41.89,39.14c2.56,1.46,25,12.34,29.23-3.52C250.78,245.77,236.75,235.28,225.6,220.63Z"/><path class="cls-3" d="M233,229.39s1.7,21.19,17.23,24.76C250.19,254.15,256.63,249.73,233,229.39Z"/><path class="cls-4" d="M116.55,356.11c-.08-.28-.47-2.06-.56-2.33-2-5.87-6.36-6.28-11-4.69S97,353.66,99,359.53c.14.42.62,2.35.81,2.78,2.41,5.49,6.82,6.74,11.17,5.27S118.17,362,116.55,356.11Z"/><path class="cls-5" d="M117.17,358.64c-.08-.27-1.17-4.27-1.27-4.52-2-5.61-6.2-5.94-10.68-4.34s-7.53,4.51-5.53,10.12c.14.41,1.32,4.55,1.5,5,2.4,5.24,6.34,9.92,11.9,7.94S118.81,364.25,117.17,358.64Z"/><path class="cls-3" d="M116.36,356.36c-.08-.27-.64-1.85-.74-2.1-2-5.61-6.21-5.94-10.68-4.35s-7.53,4.51-5.53,10.12c.15.41.79,2.12,1,2.53,2.4,5.24,6.66,6.38,10.81,4.9S118,362,116.36,356.36Z"/><path class="cls-4" d="M169.62,390.55c-.1-.34-.65-2.49-.77-2.81-2.64-7.07-8-7.41-13.61-5.3s-9.45,5.85-6.82,12.92c.19.51.84,2.84,1.09,3.35,3.13,6.6,8.56,8,13.79,6C168.68,402.7,171.81,397.63,169.62,390.55Z"/><path class="cls-5" d="M170.47,393.61c-.11-.33-1.58-5.15-1.71-5.46-2.64-6.76-7.77-7-13.16-4.9s-9,5.76-6.36,12.52c.19.49,1.77,5.49,2,6,3.11,6.3,8.08,11.85,14.78,9.23S172.68,400.37,170.47,393.61Z"/><path class="cls-3" d="M169.39,390.86c-.11-.33-.85-2.22-1-2.53-2.64-6.76-7.77-7-13.16-4.9s-9,5.76-6.36,12.52c.19.49,1,2.55,1.29,3,3.11,6.3,8.34,7.52,13.34,5.57S171.6,397.62,169.39,390.86Z"/><path class="cls-4" d="M212,395.47c-.13-.33-.82-2.44-1-2.75-3.1-6.88-8.45-6.86-13.94-4.39s-9,6.46-5.94,13.34c.23.5,1,2.78,1.31,3.27,3.56,6.38,9.07,7.37,14.16,5.07S214.65,402.38,212,395.47Z"/><path class="cls-5" d="M213,398.46c-.13-.32-1.92-5-2.07-5.34-3.08-6.57-8.22-6.47-13.46-4s-8.6,6.35-5.52,12.92c.22.48,2.13,5.36,2.41,5.83,3.52,6.07,8.85,11.28,15.36,8.23S215.69,405.07,213,398.46Z"/><path class="cls-3" d="M211.78,395.79c-.13-.32-1-2.16-1.14-2.46-3.08-6.57-8.22-6.47-13.46-4s-8.6,6.35-5.52,12.92c.22.48,1.21,2.48,1.49,3,3.52,6.07,8.83,6.95,13.68,4.67S214.44,402.4,211.78,395.79Z"/><path class="cls-4" d="M238.88,362.12c-.13-.33-.82-2.44-1-2.75-3.1-6.88-8.45-6.86-13.93-4.39s-9,6.46-5.94,13.34c.22.5,1,2.78,1.31,3.27,3.57,6.38,9.07,7.37,14.16,5.07S241.54,369,238.88,362.12Z"/><path class="cls-5" d="M239.93,365.11c-.13-.32-1.92-5-2.06-5.34-3.08-6.57-8.22-6.47-13.46-4s-8.6,6.35-5.52,12.92c.22.48,2.13,5.36,2.41,5.83,3.52,6.07,8.85,11.28,15.36,8.23S242.58,371.71,239.93,365.11Z"/><path class="cls-3" d="M238.67,362.44c-.13-.32-1-2.16-1.14-2.46-3.08-6.57-8.22-6.47-13.46-4s-8.6,6.35-5.51,12.92c.22.47,1.21,2.48,1.48,3,3.53,6.07,8.82,6.95,13.68,4.67S241.33,369,238.67,362.44Z"/><path class="cls-6" d="M180.7,214.76c-3.85-7-11.37-18.26-11.37-18.26l-1.76,2s6.12,9,11.09,17.32S192.58,244,192.58,244,184.51,221.7,180.7,214.76Z"/><path class="cls-7" d="M371.89,233c-7.16-17.72-19.79-20.94-31.81-16.09s-18.88,15.95-11.72,33.66c5.27,13,25.61,35.35,37.63,30.5S376.79,245.12,371.89,233Z"/><path class="cls-8" d="M367.78,258.29c-3.23-8-8.24-7.76-13.67-5.57s-9.2,5.51-6,13.5S362.53,283,365.8,281.65,371,266.28,367.78,258.29Z"/><path class="cls-7" d="M431.38,249.39c-6.39-11.29-18.28-16.63-34.91-7.22-12.25,6.93-31.7,30-25.32,41.29s37,6,48.44-.43C436.22,273.62,437.76,260.67,431.38,249.39Z"/><path class="cls-8" d="M397.7,268c-2.88-5.09-6.66-8.4-14.17-4.15s-14.73,16.45-13,19.52,15.92,3.16,23.42-1.09S400.58,273.07,397.7,268Z"/><path class="cls-7" d="M422.58,299.52c-11.27-8.42-40.23-16.94-48-6.55s9.41,36.33,19.89,44.16c15.31,11.44,27.78,7.64,35.54-2.75S437.89,311,422.58,299.52Z"/><path class="cls-8" d="M397.55,296.4c-6.9-5.16-21-6.86-23.1-4s3.52,15.85,10.43,21,11.08,2.36,14.57-2.32S404.46,301.56,397.55,296.4Z"/><path class="cls-7" d="M364.77,296.54c-12.84-1.82-27.36,25.69-29.2,38.65-2.69,18.92,6.63,28,19.47,29.86s24.33-4.34,27-23.26C384,327.86,377.61,298.37,364.77,296.54Z"/><path class="cls-8" d="M365.24,296.13c-3.64-.52-12.21,10.69-13.42,19.23s3.24,10.85,9,11.67,10.72-.16,11.93-8.69S368.73,296.62,365.24,296.13Z"/><path class="cls-7" d="M361.74,286.6c-2.77-12.67-33.62-16.68-46.4-13.88-18.67,4.08-24,16-21.19,28.66s12.55,21.28,31.22,17.2C339.1,315.58,364.5,299.27,361.74,286.6Z"/><path class="cls-8" d="M362.29,286.89c-.79-3.59-14.28-7.71-22.7-5.87s-9,6.82-7.79,12.54,3.89,10,12.31,8.15S363,290.33,362.29,286.89Z"/><ellipse class="cls-8" cx="368.17" cy="289.2" rx="13.44" ry="12.79" transform="translate(-81.5 158.9) rotate(-21.99)"/><ellipse class="cls-9" cx="368.17" cy="289.2" rx="8.87" ry="7.86" transform="translate(-81.5 158.88) rotate(-21.99)"/></svg>